<?xml version="1.0" standalone="no"?>
<!DOCTYPE svg PUBLIC "-//W3C//DTD SVG 1.1//EN" "http://www.w3.org/Graphics/SVG/1.1/DTD/svg11.dtd" >
<svg xmlns="http://www.w3.org/2000/svg">
<metadata>Generated by IcoMoon</metadata>
<defs>
<font id="nsx-icons" horiz-adv-x="1024">
<font-face units-per-em="1024" ascent="960" descent="-64" />
<missing-glyph horiz-adv-x="1024" />
<glyph unicode="&#x20;" horiz-adv-x="512" d="" />
<glyph unicode="&#xe600;" glyph-name="expand" horiz-adv-x="1195" d="M176.924-42.388h-64.024v448.163h64.024v-448.163zM566.313 356.287l-396.625-398.675-50.834 51.282 396.625 398.737zM112.899-42.388v64.024h448.163v-64.024h-448.163zM1032.979 938.324h64.024v-448.163h-64.024v448.163zM643.589 539.649l396.625 398.737 50.9-51.347-396.625-398.737zM1097.003 938.324v-64.024h-448.163v64.024h448.163z" />
<glyph unicode="&#xe601;" glyph-name="check" d="M384 248.747l-177.92 177.92-60.373-60.373 238.293-238.293 512 512-60.373 60.373z" />
<glyph unicode="&#xe602;" glyph-name="right" d="M678.4 460.8l-365.619 379.904c-13.722 13.824-13.722 36.198 0 50.125 13.722 13.824 35.891 13.824 49.613 0l400.896-404.89c13.722-13.875 13.722-36.301 0-50.125l-400.896-404.89c-13.722-13.875-35.891-13.824-49.613 0-13.722 13.773-13.722 36.198 0 50.125l365.619 379.75z" />
<glyph unicode="&#xe603;" glyph-name="left" d="M711.219 80.998c13.722-13.926 13.722-36.301 0-50.125s-35.891-13.875-49.613 0l-400.896 404.89c-13.722 13.824-13.722 36.198 0 50.125l400.896 404.89c13.722 13.824 35.891 13.824 49.613 0 13.722-13.875 13.722-36.301 0-50.125l-365.619-379.853 365.619-379.802z" />
<glyph unicode="&#xe604;" glyph-name="down" d="M891.802 660.019c13.926 13.722 36.301 13.722 50.125 0s13.875-35.891 0-49.613l-404.89-400.896c-13.824-13.722-36.198-13.722-50.125 0l-404.89 400.896c-13.824 13.722-13.824 35.891 0 49.613 13.875 13.722 36.301 13.722 50.125 0l379.853-365.619 379.802 365.619z" />
<glyph unicode="&#xe605;" glyph-name="close" d="M810.667 664.96l-60.373 60.373-238.293-238.293-238.293 238.293-60.373-60.373 238.293-238.293-238.293-238.293 60.373-60.373 238.293 238.293 238.293-238.293 60.373 60.373-238.293 238.293z" />
<glyph unicode="&#xe606;" glyph-name="instagram" d="M870.4 921.6h-716.8c-56.32 0-102.4-46.080-102.4-102.4v-716.8c0-56.371 46.080-102.4 102.4-102.4h716.8c56.32 0 102.4 46.029 102.4 102.4v716.8c0 56.32-46.080 102.4-102.4 102.4zM511.181 178.022c156.621 0 283.546 127.027 283.546 283.597 0 17.306-2.202 33.997-5.274 50.381h80.947v-369.459c0-19.558-15.872-35.328-35.482-35.328h-645.837c-19.61 0-35.482 15.77-35.482 35.328v369.459h79.309c-3.123-16.384-5.325-33.075-5.325-50.381 0-156.621 127.027-283.597 283.597-283.597zM333.978 461.619c0 97.894 79.36 177.203 177.254 177.203 97.843 0 177.254-79.309 177.254-177.203s-79.411-177.254-177.254-177.254c-97.946 0-177.254 79.36-177.254 177.254zM834.918 665.6h-82.688c-19.558 0-35.43 15.974-35.43 35.43v82.79c0 19.558 15.872 35.379 35.379 35.379h82.688c19.661 0 35.533-15.821 35.533-35.379v-82.739c0-19.507-15.872-35.482-35.482-35.482z" />
<glyph unicode="&#xe607;" glyph-name="mail" d="M80.589 702.157c24.986-13.414 371.098-199.373 384-206.285s29.594-10.189 46.387-10.189c16.794 0 33.485 3.277 46.387 10.189s359.014 192.87 384 206.285c25.037 13.466 48.691 65.843 2.765 65.843h-866.253c-45.926 0-22.272-52.378 2.714-65.843zM952.986 589.363c-28.416-14.797-378.214-197.069-395.622-206.182s-29.594-10.189-46.387-10.189-28.979 1.075-46.387 10.189-365.21 191.437-393.626 206.234c-19.968 10.445-19.763-1.792-19.763-11.213s0-373.402 0-373.402c0-21.504 28.979-51.2 51.2-51.2h819.2c22.221 0 51.2 29.696 51.2 51.2 0 0 0 363.93 0 373.35s0.205 21.658-19.814 11.213z" />
<glyph unicode="&#xe608;" glyph-name="google-plus" d="M101.837 686.643c0-76.493 25.549-131.686 75.878-164.096 41.267-26.624 89.088-30.618 113.971-30.618 6.042 0 10.906 0.307 14.285 0.512 0 0-7.885-51.405 30.208-102.195h-1.741c-65.997 0-281.242-13.773-281.242-190.822 0-180.019 197.683-189.184 237.363-189.184 3.123 0 4.966 0.102 4.966 0.102 0.41 0 3.226-0.102 8.090-0.102 25.446 0 91.238 3.174 152.32 32.922 79.258 38.4 119.45 105.421 119.45 198.912 0 90.317-61.235 144.077-105.933 183.398-27.29 24.013-50.893 44.698-50.893 64.819 0 20.48 17.254 35.891 39.014 55.398 35.277 31.488 68.557 76.39 68.557 161.28 0 74.598-9.677 124.723-69.325 156.518 6.195 3.174 28.211 5.478 39.066 7.014 32.307 4.403 79.565 9.421 79.565 35.789v5.069h-235.469c-2.355-0.102-238.131-8.806-238.131-224.717zM481.946 225.178c4.506-71.987-57.088-125.082-149.606-131.789-93.952-6.912-171.264 35.379-175.77 107.315-2.202 34.611 13.005 68.403 42.752 95.386 30.157 27.29 71.578 44.186 116.634 47.514 5.325 0.307 10.598 0.614 15.872 0.614 86.989-0.051 145.869-51.149 150.118-119.040zM420.454 735.949c23.091-81.306-11.776-166.195-67.379-181.914-6.4-1.792-12.954-2.662-19.661-2.662-50.893 0-101.325 51.507-120.064 122.522-10.445 39.731-9.574 74.65 2.406 108.134 11.725 33.024 32.922 55.194 59.546 62.72 6.4 1.792 13.005 2.714 19.712 2.714 61.44 0 100.966-25.498 125.44-111.514zM819.2 563.2v153.6h-102.4v-153.6h-153.6v-102.4h153.6v-153.6h102.4v153.6h153.6v102.4h-153.6z" />
<glyph unicode="&#xe609;" glyph-name="youtube" d="M512 855.040c-503.194 0-512-44.749-512-394.24s8.806-394.24 512-394.24 512 44.749 512 394.24-8.806 394.24-512 394.24zM676.096 443.699l-229.888-107.315c-20.122-9.318-36.608 1.126-36.608 23.347v202.138c0 22.17 16.486 32.666 36.608 23.347l229.888-107.315c20.122-9.421 20.122-24.781 0-34.202z" />
<glyph unicode="&#xe60a;" glyph-name="pinterest" d="M512.006 959.998c-282.774 0-512.006-229.23-512.006-511.996 0-216.906 134.952-402.166 325.414-476.772-4.478 40.508-8.518 102.644 1.774 146.876 9.298 39.954 60.040 254.5 60.040 254.5s-15.32 30.664-15.32 76.008c0 71.19 41.268 124.336 92.644 124.336 43.68 0 64.784-32.794 64.784-72.12 0-43.928-27.964-109.604-42.404-170.464-12.060-50.972 25.556-92.536 75.814-92.536 91.008 0 160.958 95.96 160.958 234.466 0 122.584-88.088 208.298-213.868 208.298-145.678 0-231.186-109.274-231.186-222.19 0-44.008 16.95-91.196 38.102-116.844 4.182-5.070 4.792-9.516 3.548-14.68-3.884-16.18-12.522-50.96-14.216-58.076-2.234-9.368-7.422-11.356-17.124-6.842-63.95 29.77-103.926 123.264-103.926 198.348 0 161.51 117.348 309.834 338.294 309.834 177.61 0 315.634-126.56 315.634-295.704 0-176.458-111.256-318.466-265.676-318.466-51.886 0-100.652 26.958-117.35 58.796 0 0-25.672-97.766-31.894-121.71-11.564-44.468-42.768-100.218-63.642-134.226 47.91-14.832 98.818-22.832 151.604-22.832 282.768 0.002 511.996 229.23 511.996 512 0 282.766-229.228 511.996-511.994 511.996z" />
<glyph unicode="&#xe60b;" glyph-name="twitter" d="M1024 765.582c-37.676-16.708-78.164-28.002-120.66-33.080 43.372 26 76.686 67.17 92.372 116.23-40.596-24.078-85.556-41.56-133.41-50.98-38.32 40.83-92.922 66.34-153.346 66.34-116.022 0-210.088-94.058-210.088-210.078 0-16.466 1.858-32.5 5.44-47.878-174.6 8.764-329.402 92.4-433.018 219.506-18.084-31.028-28.446-67.116-28.446-105.618 0-72.888 37.088-137.192 93.46-174.866-34.438 1.092-66.832 10.542-95.154 26.278-0.020-0.876-0.020-1.756-0.020-2.642 0-101.788 72.418-186.696 168.522-206-17.626-4.8-36.188-7.372-55.348-7.372-13.538 0-26.698 1.32-39.528 3.772 26.736-83.46 104.32-144.206 196.252-145.896-71.9-56.35-162.486-89.934-260.916-89.934-16.958 0-33.68 0.994-50.116 2.94 92.972-59.61 203.402-94.394 322.042-94.394 386.422 0 597.736 320.124 597.736 597.744 0 9.108-0.206 18.168-0.61 27.18 41.056 29.62 76.672 66.62 104.836 108.748z" />
<glyph unicode="&#xe60c;" glyph-name="facebook" d="M576 864c-88.366 0-160-71.634-160-160v-96h-128v-128h128v-448h128v448h144l32 128h-176v96c0 17.672 14.326 32 32 32h160v128h-160z" />
<glyph unicode="&#xe60d;" glyph-name="adchoices" horiz-adv-x="1027" d="M256.948 811.287c-6.856-0.438-7.512-0.583-8.898-2.407-1.24-1.532-2.407-2.042-5.762-2.48-3.428-0.438-4.522-0.948-6.345-2.917-1.605-1.677-3.428-2.772-6.199-3.428-2.188-0.583-4.23-1.532-4.522-2.261-0.292-0.656-0.875-1.75-1.167-2.407-0.365-0.729-1.386-1.459-2.334-1.677-1.677-0.365-2.407-1.313-3.209-3.866-0.219-0.729-1.386-1.677-2.626-2.042-1.459-0.583-2.334-1.459-2.626-2.699-1.313-6.491-2.115-8.169-4.011-8.898-1.75-0.729-2.042-1.386-2.48-5.251-0.438-3.355-1.021-4.96-2.407-6.345-2.699-2.699-3.209-5.762-4.157-27.423-0.146-3.574-0.292-143.754-0.292-311.43 0.073-167.676 0-306.544-0.073-308.586-0.073-4.084 1.167-24.141 1.896-29.757 0.292-2.407 1.021-4.084 2.188-5.178 1.24-1.167 1.969-2.99 2.626-6.783 0.511-2.917 1.24-5.251 1.677-5.251 1.605 0 3.136-2.553 4.23-6.783 0.656-2.407 1.24-4.376 1.386-4.449s1.094-0.511 2.188-0.948c1.24-0.583 2.042-1.605 2.407-3.063 0.365-1.677 0.948-2.261 2.699-2.626 1.605-0.365 2.48-1.167 3.209-2.99 0.802-1.896 1.605-2.626 3.355-2.99 1.24-0.219 2.407-0.948 2.553-1.677 0.146-0.656 0.948-1.532 1.677-2.042 3.938-2.407 25.454-3.355 41.791-1.823 7.221 0.656 8.096 0.875 9.481 2.626 1.386 1.605 2.626 2.115 8.387 2.99 5.835 0.948 7.002 1.313 8.825 3.209 1.823 2.042 3.501 2.626 8.752 3.209 1.094 0.146 2.261 1.021 2.99 2.407 1.167 2.115 2.261 2.626 8.242 3.647 2.261 0.365 2.99 0.875 3.574 2.553s1.24 2.261 3.355 2.626c5.105 0.802 7.512 1.896 8.169 3.574s2.115 2.553 4.23 2.553c0.729 0 1.677 0.948 2.188 2.115 0.802 1.823 1.532 2.188 5.689 2.99 4.23 0.802 4.887 1.167 5.543 2.917 0.438 1.459 1.313 2.188 2.99 2.48 6.054 1.24 7.731 1.969 8.679 3.866 0.948 1.969 1.24 2.115 8.387 3.574 0.948 0.146 2.115 1.313 2.772 2.48 0.729 1.459 1.823 2.261 3.501 2.553 1.532 0.365 2.844 1.24 3.793 2.772 1.094 1.75 2.334 2.553 5.032 3.209 3.574 0.875 5.47 2.553 5.543 4.814 0 0.729 0.583 1.24 1.313 1.24 1.532 0 4.522 2.917 4.522 4.376 0 2.48 1.896 5.908 3.72 6.71 1.677 0.729 2.042 1.459 2.553 4.96 0.292 2.188 0.438 4.449 0.365 4.887-0.073 0.511 0.219 0.948 0.656 0.948s1.532 0.656 2.407 1.532c1.386 1.24 1.605 2.407 1.896 8.46 0.292 8.971-0.438 14.806-1.823 14.806-1.313 0-2.188 2.042-3.209 7.366-0.656 3.574-1.094 4.303-2.917 5.032-1.094 0.438-2.48 1.75-2.917 2.917s-1.823 2.48-2.99 2.917c-1.167 0.511-2.334 1.677-2.553 2.626-0.438 1.823-4.814 3.938-8.023 3.938-2.407 0-4.668 1.24-4.668 2.553 0 1.386-7.95 2.115-15.973 1.532-5.251-0.438-6.491-0.729-7.731-2.115-1.386-1.532-4.376-2.48-12.326-3.793-1.605-0.292-3.501-1.24-4.449-2.261-2.188-2.334-6.564-3.063-17.067-2.699-9.409 0.292-11.524 0.948-12.18 3.501-0.219 1.021-0.948 1.823-1.677 1.823-1.969 0-4.449 2.188-4.449 3.938 0 1.167-0.656 1.823-2.48 2.48-2.261 0.875-2.626 1.313-2.99 4.376-0.729 5.251-1.021 5.908-3.282 7.075-1.969 1.021-2.042 1.24-2.553 8.533-0.219 4.157-0.365 109.693-0.219 234.557l0.219 227.118 1.896 1.605c2.48 2.115 3.282 3.72 3.938 7.585 0.438 2.626 1.021 3.501 2.99 4.668 1.386 0.802 2.48 2.042 2.48 2.772 0 1.532 1.167 2.553 3.793 3.209 1.094 0.219 2.115 1.094 2.407 1.823 0.729 2.407 1.969 2.844 10.94 3.72 11.159 1.094 26.986-0.365 28.517-2.626 1.896-2.699 2.407-2.99 6.126-3.501 4.011-0.511 5.324-1.386 6.126-3.793 0.365-1.167 1.532-1.677 5.178-2.407 3.866-0.802 5.032-1.386 6.272-3.063 0.802-1.167 2.115-2.115 2.917-2.115 0.729 0 2.042-0.729 2.844-1.605 0.875-0.948 2.042-2.261 2.699-2.917 0.656-0.729 1.75-1.313 2.334-1.313 3.136 0 6.71-1.605 7.366-3.282s2.917-2.699 7.658-3.428c1.823-0.292 2.917-1.313 3.574-3.209 0.365-1.167 1.532-1.677 5.178-2.407 3.866-0.802 5.032-1.386 6.272-3.063 0.802-1.167 2.115-2.115 2.917-2.115 0.729 0 2.042-0.729 2.844-1.605 0.875-0.948 2.042-2.261 2.699-2.917 0.656-0.729 1.75-1.313 2.334-1.313 3.136 0 6.71-1.605 7.366-3.282s2.917-2.699 7.658-3.428c1.823-0.292 2.917-1.313 3.574-3.209 0.365-1.167 1.532-1.677 5.178-2.407 3.866-0.802 5.032-1.386 6.272-3.063 0.802-1.167 2.115-2.115 2.917-2.115 0.729 0 2.042-0.729 2.844-1.605 0.875-0.948 2.042-2.261 2.699-2.917 0.656-0.729 1.75-1.313 2.334-1.313 3.136 0 6.71-1.605 7.366-3.282s2.917-2.699 7.658-3.428c1.823-0.292 2.917-1.313 3.574-3.209 0.365-1.167 1.532-1.677 5.178-2.407 3.866-0.802 5.032-1.386 6.272-3.063 0.802-1.167 2.115-2.115 2.917-2.115 0.729 0 2.042-0.729 2.844-1.605 0.875-0.948 2.042-2.261 2.699-2.917 0.656-0.729 1.75-1.313 2.334-1.313 3.136 0 6.71-1.605 7.366-3.282s2.917-2.699 7.658-3.428c1.823-0.292 2.917-1.313 3.574-3.209 0.365-1.167 1.532-1.677 5.178-2.407 3.866-0.802 5.032-1.386 6.272-3.063 0.802-1.167 2.115-2.115 2.917-2.115 0.729 0 2.042-0.729 2.844-1.605 0.875-0.948 2.042-2.261 2.699-2.917 0.656-0.729 1.75-1.313 2.334-1.313 3.136 0 6.71-1.605 7.366-3.282s2.917-2.699 7.658-3.428c1.823-0.292 2.917-1.313 3.574-3.209 0.365-1.167 1.532-1.677 5.178-2.407 3.866-0.802 5.032-1.386 6.272-3.063 0.802-1.167 2.115-2.115 2.917-2.115 0.729 0 2.042-0.729 2.844-1.605 0.875-0.948 2.042-2.261 2.699-2.917 0.656-0.729 1.75-1.313 2.334-1.313 3.136 0 6.71-1.605 7.366-3.282s2.917-2.699 7.658-3.428c1.823-0.292 2.917-1.313 3.574-3.209 0.365-1.167 1.532-1.677 5.178-2.407 3.866-0.802 5.032-1.386 6.272-3.063 0.802-1.167 2.115-2.115 2.917-2.115 0.729 0 2.042-0.729 2.844-1.605 0.875-0.948 2.042-2.261 2.699-2.917 0.656-0.729 1.75-1.313 2.334-1.313 3.136 0 6.71-1.605 7.366-3.282s2.917-2.699 7.658-3.428c1.823-0.292 2.917-1.313 3.574-3.209 0.365-1.167 1.532-1.677 5.178-2.407 3.866-0.802 5.032-1.386 6.272-3.063 0.802-1.167 2.115-2.115 2.917-2.115 0.729 0 2.042-0.729 2.844-1.605 0.875-0.948 2.042-2.261 2.699-2.917 0.656-0.729 1.75-1.313 2.334-1.313 3.136 0 6.71-1.605 7.366-3.282s2.917-2.699 7.658-3.428c1.823-0.292 2.917-1.313 3.574-3.209 0.365-1.167 1.532-1.677 5.178-2.407 3.866-0.802 5.032-1.386 6.272-3.063 0.802-1.167 2.115-2.115 2.917-2.115 0.729 0 2.042-0.729 2.844-1.677 0.875-0.875 2.042-2.188 2.699-2.844 0.656-0.729 1.75-1.313 2.334-1.313 3.063 0 6.71-1.605 7.366-3.209 0.729-1.969 1.459-2.334 6.126-2.99 2.772-0.438 3.647-0.948 4.449-2.626 1.094-1.969 1.896-2.407 8.533-3.866 1.094-0.219 2.626-1.386 3.428-2.553 0.875-1.167 2.48-2.334 3.574-2.626 1.459-0.292 2.48-1.24 3.282-2.917 0.875-1.75 1.75-2.48 3.209-2.699 1.532-0.146 2.115-0.729 2.699-2.626 0.511-1.823 1.167-2.553 2.772-2.844s2.188-0.948 2.772-3.136c0.511-1.969 1.24-2.917 2.48-3.209 0.948-0.219 1.896-0.948 2.115-1.532 1.167-2.99 2.115-14.514 1.677-20.422-0.729-9.336-1.459-11.742-4.011-12.618-1.532-0.511-2.261-1.386-2.626-3.063-0.365-1.75-1.167-2.626-2.99-3.355-1.605-0.656-2.48-1.532-2.48-2.48s-0.875-1.823-2.553-2.48c-1.386-0.583-2.917-1.896-3.355-2.844-0.875-1.896-3.428-3.428-5.762-3.428s-4.887-1.532-5.762-3.355c-0.438-0.948-1.386-1.75-2.115-1.75s-3.063-0.511-5.178-1.167c-2.772-0.802-3.938-1.605-4.449-2.844-0.438-1.24-1.605-1.969-3.793-2.626-2.99-0.802-7.221-3.209-7.731-4.449-0.146-0.292-1.532-0.802-3.136-1.021-1.677-0.292-2.844-0.875-2.844-1.459s-0.292-1.021-0.729-1.021c-0.365 0-0.729-0.438-0.729-0.948 0-0.802-6.054-2.699-8.825-2.699-0.583 0-1.386-0.875-1.823-1.969-0.583-1.605-1.532-2.261-4.157-2.917-1.896-0.511-4.084-0.948-4.887-0.948s-1.896-0.875-2.48-2.115c-0.948-1.75-1.823-2.261-5.908-3.063-4.157-0.802-4.96-1.24-6.272-3.282-1.313-2.188-1.896-2.48-5.762-2.917-3.793-0.438-4.376-0.729-5.105-2.553-0.729-1.75-1.532-2.188-5.032-2.844-6.199-1.24-6.491-1.386-6.929-3.282-0.438-1.75-3.866-3.282-7.512-3.282-0.948 0-2.626-1.094-3.938-2.553-1.823-2.042-3.063-2.626-5.981-2.99-2.261-0.292-4.084-1.021-4.814-1.969-2.407-2.917-3.063-3.282-6.054-3.793-4.96-0.729-5.47-1.021-6.418-3.282-0.729-1.823-1.386-2.188-4.303-2.553-4.303-0.583-6.637-1.75-7.585-3.793-0.438-0.948-1.313-1.677-1.969-1.677s-2.844-0.511-4.887-1.094c-2.553-0.729-3.866-1.605-4.449-2.844-0.583-1.313-1.605-1.969-3.574-2.261-5.178-0.802-5.981-1.094-6.929-2.261-2.626-3.209-3.647-3.938-5.397-3.938-1.386 0-2.042-0.511-2.699-2.188-0.438-1.167-1.167-2.115-1.605-2.042-0.365 0.073-2.553-0.292-4.814-0.802-3.209-0.802-4.23-1.386-4.887-2.99-0.802-1.677-1.532-2.042-5.981-2.844-3.355-0.583-5.105-1.24-5.105-1.896 0-1.823-2.261-3.209-6.637-4.084-3.574-0.729-4.522-1.24-5.397-2.844-1.24-2.334-1.969-2.699-6.929-3.355-3.063-0.438-3.866-0.875-4.741-2.48-0.802-1.605-1.896-2.261-4.741-2.844-2.042-0.438-4.157-0.802-4.668-0.802s-1.386-0.875-1.896-1.896c-1.313-2.334-2.407-2.917-6.71-3.574l-3.501-0.511v73.007c0 49.523-0.292 74.758-0.802 78.332-0.802 5.178-2.115 7.804-4.084 7.804-0.511 0-0.948 0.583-0.948 1.313s-0.511 2.99-1.094 5.032c-0.948 3.136-1.386 3.72-3.282 4.084-1.677 0.365-2.261 1.021-2.772 2.844-0.511 2.188-0.948 2.407-4.741 3.209-4.157 0.802-7.075 2.626-7.075 4.376 0 1.313-12.107 2.042-23.193 1.459-4.887-0.292-9.409-0.656-9.992-0.875-0.511-0.219-1.386-1.386-1.823-2.48-0.656-1.605-1.532-2.261-3.355-2.626-1.969-0.365-2.772-1.021-3.501-2.844-0.583-1.386-1.677-2.553-2.772-2.772-1.094-0.292-2.042-1.313-2.626-2.99-0.656-1.677-1.605-2.772-3.063-3.209-1.823-0.656-2.115-1.24-2.553-4.303-0.729-5.032-1.021-5.908-2.772-7.585l-1.605-1.459-0.219-109.621-0.146-109.693 1.677-1.094c1.313-0.875 1.896-2.261 2.626-6.345 0.729-3.866 1.605-5.981 3.428-8.387 1.313-1.823 2.917-4.376 3.501-5.689 0.729-1.75 1.605-2.626 3.063-2.917 1.532-0.292 2.334-1.094 2.99-2.626 0.656-1.896 1.459-2.407 5.397-3.501 3.793-1.021 4.668-1.605 5.324-3.282 0.583-1.459 1.24-2.042 2.626-2.042 3.282 0 7.877-1.823 9.627-3.72 1.605-1.677 2.48-1.896 9.336-2.407 4.157-0.219 11.451-0.219 16.264 0 8.169 0.511 8.679 0.583 9.481 2.261 0.729 1.605 2.188 2.261 8.387 3.501 1.75 0.365 2.917 1.24 3.866 2.917 1.313 2.188 1.896 2.48 5.762 2.917 3.72 0.438 4.376 0.729 5.105 2.48 0.875 2.115 4.376 3.72 8.242 3.72 1.313 0 2.261 0.729 3.428 2.48 1.313 2.188 2.042 2.626 4.96 2.99 5.105 0.729 5.543 0.948 6.929 3.209 0.875 1.532 1.969 2.188 4.084 2.553 4.157 0.656 6.345 1.823 7.293 3.793 0.438 0.948 1.24 1.75 1.823 1.75 2.115 0 4.887 1.75 5.251 3.282 0.292 1.094 1.313 1.75 4.157 2.407 2.115 0.511 4.376 0.875 5.032 0.875s1.386 0.802 1.605 1.823c0.365 1.313 1.24 1.969 3.574 2.626 6.856 1.896 7.585 2.188 8.387 3.866 0.583 1.386 1.823 1.969 5.616 2.844 2.699 0.656 4.96 1.24 5.032 1.386s0.729 1.094 1.386 2.188c0.948 1.532 2.042 2.042 4.668 2.48 4.303 0.583 5.835 1.313 6.418 3.063 0.511 1.677 3.355 3.063 6.054 3.063 2.407 0 5.251 1.823 5.251 3.355 0 1.24 2.844 2.48 5.616 2.48 2.334 0 5.835 2.042 6.272 3.647 0.219 0.729 1.386 1.459 2.99 1.75 1.532 0.292 2.626 0.948 2.626 1.532 0 1.677 3.428 3.793 6.929 4.303 2.407 0.365 3.647 1.094 4.96 2.699 1.386 1.75 2.626 2.334 6.126 3.063 3.938 0.729 4.595 1.094 5.616 3.136 0.948 2.042 1.532 2.407 4.96 2.844 4.668 0.656 5.543 1.094 6.637 3.282 0.875 1.677 2.261 2.261 7.95 3.209 2.042 0.365 2.917 1.021 3.574 2.553 0.802 1.75 1.532 2.261 4.157 2.626 4.449 0.656 6.418 1.677 7.366 3.72 0.438 0.948 1.24 1.75 1.823 1.75 2.115 0 4.887 1.75 5.251 3.282 0.292 1.313 1.313 1.75 5.178 2.553 4.23 0.948 4.887 1.313 5.908 3.428 0.583 1.24 1.313 2.188 1.605 2.042 0.219-0.146 2.407 0.219 4.887 0.875 3.355 0.802 4.595 1.532 5.178 2.772 0.656 1.386 1.823 1.969 5.324 2.699 3.647 0.729 4.814 1.313 5.689 2.844 1.094 1.969 4.376 3.574 7.439 3.574 2.261 0 3.501 0.802 4.595 2.99 0.656 1.313 1.75 1.896 4.668 2.48 3.647 0.656 6.856 2.626 7.512 4.595 0.146 0.438 1.969 1.167 4.084 1.532 3.793 0.729 6.783 2.553 6.783 4.157 0 0.438 1.24 1.167 2.772 1.605 1.75 0.511 3.136 1.532 3.574 2.553 0.656 1.386 1.75 1.896 5.762 2.626 4.522 0.875 5.178 1.24 6.126 3.282 0.583 1.24 1.459 2.261 1.823 2.334 1.021 0.073 6.272 1.094 7.731 1.459 0.656 0.146 1.532 1.094 1.969 2.115 0.802 1.677 2.553 2.407 8.315 3.647 1.167 0.219 2.334 1.167 2.917 2.407 0.802 1.605 1.677 2.115 5.105 2.772 5.689 1.167 6.418 1.459 6.418 3.136 0 1.094 0.875 1.605 3.866 2.261 4.887 1.167 7.804 2.699 7.804 4.011 0 1.167 2.188 2.553 4.157 2.553 0.729 0 1.896 0.948 2.553 2.188 1.021 1.75 1.969 2.261 5.689 3.063 3.647 0.729 4.668 1.24 5.543 2.844 0.729 1.532 1.896 2.188 4.814 2.844 6.126 1.386 6.272 1.459 6.71 3.209s1.24 2.042 9.627 3.72c0.948 0.219 1.75 1.094 2.042 2.115 0.438 1.75 3.647 3.282 7.002 3.355 1.605 0.073 3.355 1.605 3.938 3.501 0.292 0.948 1.386 1.823 2.48 2.042 2.48 0.656 3.793 1.677 4.522 3.647 0.365 0.948 1.532 1.823 2.844 2.115 1.605 0.365 2.407 1.021 2.699 2.261 0.292 1.094 1.532 2.334 2.99 3.063 1.386 0.729 2.917 2.115 3.355 3.063 0.511 1.021 1.677 2.188 2.699 2.699 0.948 0.438 2.334 1.969 3.063 3.355 0.729 1.532 1.969 2.699 3.063 2.99 1.386 0.365 1.969 1.094 2.334 2.917 0.292 1.896 0.948 2.699 2.48 3.282 2.115 0.729 2.844 2.261 3.938 8.971 0.292 1.532 0.948 3.209 1.532 3.793s1.094 1.605 1.094 2.188c0 0.656 0.292 1.167 0.656 1.167 1.021 0 1.459 8.46 0.729 13.712-0.511 3.282-1.094 5.032-2.042 5.762-0.948 0.656-1.677 2.553-2.261 5.981-0.729 4.303-1.094 5.105-2.48 5.47-1.896 0.438-3.136 2.772-3.793 7.075-0.438 2.407-0.875 3.063-2.844 3.938-1.75 0.656-2.553 1.605-2.917 3.209-0.365 1.75-1.021 2.407-2.699 2.844-2.115 0.511-2.699 1.167-4.23 4.522-0.292 0.583-1.313 1.24-2.261 1.459-1.021 0.219-2.188 1.313-2.844 2.772-0.802 1.75-1.823 2.48-4.011 3.063-4.741 1.24-6.199 2.042-7.075 3.938-0.438 1.094-1.677 2.042-2.99 2.334-1.459 0.292-2.407 1.094-2.917 2.553-0.438 1.167-1.313 2.261-1.969 2.407-0.583 0.146-2.772 0.729-4.814 1.24-2.844 0.656-4.084 1.386-5.032 2.99-0.729 1.313-2.042 2.261-3.428 2.553-1.313 0.292-2.407 1.021-2.772 2.115-0.511 1.167-1.75 1.969-4.449 2.772-2.115 0.656-4.376 1.167-5.105 1.167-0.656 0-1.605 0.948-2.115 2.188-0.656 1.677-1.532 2.261-3.574 2.626-5.835 0.948-7.002 1.532-7.95 3.355-0.948 2.042-1.167 2.115-7.075 3.501-2.772 0.583-3.938 1.313-4.814 2.844-1.021 1.75-1.896 2.188-4.96 2.626-2.772 0.365-4.303 1.021-5.616 2.407-0.948 1.094-1.75 2.188-1.75 2.48 0 0.219-1.896 0.875-4.157 1.313-3.282 0.656-4.741 1.459-6.491 3.355-1.313 1.386-3.063 2.48-3.938 2.48-1.021 0-1.75 0.583-1.969 1.459-0.511 1.896-3.282 3.355-7.585 4.011-2.772 0.438-3.428 0.802-4.084 2.553-0.583 1.677-1.386 2.188-3.574 2.553-6.054 1.021-7.148 1.532-8.315 3.647-0.948 1.75-1.969 2.261-5.324 2.99-4.376 0.875-6.054 1.823-6.71 3.866-0.219 0.802-1.823 1.459-4.887 2.042-3.574 0.656-4.814 1.313-6.199 3.063-1.167 1.532-2.553 2.261-4.814 2.626-3.72 0.583-6.054 2.042-6.71 4.011-0.292 0.875-1.094 1.459-2.042 1.459-2.042 0-2.99 0.656-4.084 2.699-0.729 1.532-2.772 2.334-8.315 3.501-1.24 0.219-2.553 1.24-3.282 2.553-1.021 1.75-2.042 2.334-5.251 2.99-4.814 0.948-6.564 1.823-6.564 3.136 0 1.605-2.99 3.136-7.075 3.72-2.844 0.365-3.938 0.875-4.23 1.896-0.511 1.605-1.75 2.188-7.221 3.72-2.48 0.656-3.793 1.532-4.449 2.772-0.802 1.459-1.896 2.042-5.47 2.772-3.72 0.802-4.668 1.313-5.689 3.063-0.656 1.24-1.823 2.188-2.553 2.188-1.969 0-4.157 1.386-4.157 2.553 0 1.386-3.282 2.99-7.366 3.574-2.844 0.438-3.574 0.875-4.303 2.626-0.875 2.115-1.24 2.261-7.439 3.355-2.042 0.365-3.136 1.094-4.23 2.844-1.313 2.115-1.969 2.48-5.689 2.917-3.574 0.438-4.376 0.802-5.616 2.772-1.167 1.896-2.188 2.407-5.616 3.136-2.334 0.438-4.303 0.656-4.449 0.511-0.219-0.146-0.729 0.729-1.24 1.969-0.875 2.115-4.011 3.647-7.512 3.647-0.729 0-2.553 1.313-4.157 2.917s-3.501 2.917-4.23 2.917c-0.729 0-1.823 0.802-2.334 1.823-0.948 1.677-5.981 4.011-8.825 4.011-0.729 0-1.677 0.656-2.115 1.386-1.313 2.48-2.99 3.72-5.032 3.72-3.282 0-6.199 1.313-7.366 3.428-0.875 1.459-2.115 2.188-5.835 3.063-3.866 0.948-4.887 1.532-5.689 3.209-0.656 1.313-1.532 1.969-2.626 1.969-2.917 0-8.387 2.261-8.825 3.647-0.438 1.313-6.491 3.647-9.336 3.647-0.583 0-1.313 0.802-1.532 1.75-0.365 1.532-1.532 2.261-5.689 3.647-0.729 0.219-1.313 0.875-1.313 1.459 0 1.459-3.209 3.063-7.366 3.647-2.844 0.438-3.574 0.875-4.303 2.626-0.511 1.167-1.459 2.261-2.115 2.48-0.656 0.146-2.917 0.729-4.96 1.167-2.334 0.511-3.866 1.24-3.866 1.823 0 1.896-2.188 3.136-6.418 3.647-3.938 0.438-4.376 0.656-5.47 2.844-0.948 2.115-1.605 2.48-5.032 3.063-2.115 0.292-4.376 0.583-5.105 0.583s-1.313 0.729-1.605 1.896c-0.292 1.605-1.021 2.188-4.011 3.209-1.969 0.656-4.303 1.167-5.032 1.167-0.875 0-1.605 0.656-1.896 1.677-0.365 1.677-3.063 3.428-5.251 3.428-0.583 0-1.386 0.802-1.896 1.75-0.802 1.896-2.99 2.99-7.366 3.793-1.896 0.292-3.209 1.094-4.011 2.407-1.532 2.48-2.334 2.99-4.449 2.99-3.209 0-6.637 1.677-7.075 3.428-0.511 1.75-1.167 2.115-6.418 2.844-2.917 0.365-3.72 0.875-4.887 2.844-1.24 1.969-2.115 2.48-5.835 3.282-4.522 0.948-6.491 2.188-6.491 4.084 0 0.583-0.583 1.021-1.24 1.021-0.729 0-2.99 0.365-5.105 0.875-2.917 0.729-3.866 1.24-4.23 2.553-0.219 1.094-1.313 1.896-3.355 2.553-1.823 0.511-3.282 1.532-3.72 2.48-0.875 1.823-3.136 2.917-7.731 3.574-2.48 0.365-3.136 0.875-3.501 2.261-0.511 1.969-2.334 3.209-4.741 3.209-2.917 0-6.199 1.605-7.293 3.574-0.875 1.532-2.042 2.115-5.689 2.844s-4.668 1.313-5.178 2.699c-0.656 1.677-2.699 2.626-7.95 3.647-1.605 0.365-2.844 1.24-3.574 2.553-0.802 1.459-2.042 2.261-3.793 2.553-1.386 0.292-2.699 0.729-2.917 1.021-0.948 1.313-5.032 3.647-7.95 4.522-1.677 0.511-3.355 1.459-3.501 2.042-0.656 1.896-3.355 3.72-5.47 3.72-3.063 0-5.689 1.313-6.345 3.136-0.729 1.969-2.115 2.699-4.887 2.699-2.553 0-5.908 1.896-6.491 3.574-0.438 1.532-0.656 1.605-6.783 2.99-2.99 0.656-4.084 1.313-4.522 2.626-0.875 2.188-2.407 2.917-7.439 3.501-3.647 0.511-4.303 0.802-4.668 2.334-0.511 1.896-0.511 1.896-9.992 3.282-5.397 0.729-6.637 1.167-7.585 2.553-0.583 1.021-2.042 1.896-3.355 2.042-4.303 0.656-21.224 0.948-28.736 0.511zM457.664 560.83c-4.668-0.583-5.324-0.875-6.418-2.844-0.656-1.167-1.532-1.896-1.969-1.677-0.365 0.219-0.729 0.073-0.729-0.292 0-0.438-0.948-0.802-2.115-0.802-3.501 0-5.689-1.167-6.491-3.501-0.511-1.605-1.386-2.334-2.99-2.699-1.823-0.365-2.334-0.948-2.699-2.99-0.219-1.386-0.875-2.48-1.313-2.48-2.334 0-3.647-2.115-4.522-7.221-0.438-2.917-0.656-5.981-0.438-6.783 0.292-1.167 0.146-1.386-0.656-0.948-0.802 0.511-0.875 0.438-0.146-0.511 0.802-0.875 0.656-1.24-0.802-1.896-2.042-0.948-2.772-5.324-1.969-12.836 0.438-4.011 0.875-5.251 2.115-6.126 0.948-0.656 1.605-1.823 1.605-2.99 0-5.324 0.875-7.512 3.355-8.533 1.75-0.729 2.407-1.532 2.626-2.99 0.146-1.532 0.875-2.334 2.99-3.355 1.605-0.729 2.699-1.75 2.699-2.553 0-1.823 1.386-3.063 3.428-3.063 1.094 0 2.042-0.729 2.772-2.188 0.656-1.24 1.896-2.334 2.917-2.553s2.699-0.511 3.72-0.729c1.094-0.292 4.741-0.438 8.242-0.438 4.449 0 5.908-0.219 5.178-0.729-0.875-0.583-0.729-0.656 0.511-0.292 0.802 0.219 3.793 0.583 6.564 0.729 12.691 0.802 13.93 1.094 14.733 3.282 0.511 1.459 1.313 2.188 3.136 2.553 3.355 0.729 7.877 3.136 7.877 4.23 0 0.438 1.313 2.115 2.844 3.647 2.042 1.969 2.99 3.647 3.355 5.835 0.365 1.823 1.167 3.501 2.261 4.303 2.48 1.969 3.355 7.439 3.063 19.182-0.219 9.992-0.219 10.211-2.042 11.086-1.021 0.511-1.75 1.459-1.605 2.115s0 1.021-0.365 0.802c-0.292-0.219-0.656 0.438-0.656 1.386-0.365 5.032-1.021 6.637-3.428 7.658-1.677 0.729-2.407 1.605-2.699 3.209-0.292 1.677-0.802 2.261-2.188 2.407-2.334 0.365-3.647 1.459-3.647 3.136 0 1.532-2.042 2.844-4.303 2.844-0.875 0-1.532 0.511-1.532 1.094 0 1.75-4.084 3.793-8.606 4.376-6.491 0.802-16.119 0.875-21.662 0.146z" />
<glyph unicode="&#xe60e;" glyph-name="acura" horiz-adv-x="1047" d="M1033.769 489.285c-8.766 167.637-66.407 290.826-144.444 357.891-84.428 72.531-242.108 100.053-364.266 99.559-122.114 0.503-279.814-27.029-364.229-99.559-78.065-67.045-135.682-190.263-144.436-357.891-8.192-157.026 26.494-328.875 115.803-426.317 86.088-95.464 259.017-125.761 392.765-125.613 0.005 0 0.005 0 0.010 0s0.008 0 0.013 0c133.77-0.161 306.753 30.146 392.873 125.613 89.178 97.413 123.926 269.26 115.704 426.317zM496.394 904.132c17.218 0.959 20.808 0.819 28.545 0.76 7.661 0.005 11.273 0.183 28.5-0.76 0.005 0 0.457-366.711 0.457-366.711-4.874 0-53.094 0-57.926 0 0 0 0.396 366.711 0.436 366.711zM84.794 334.967c-5.458 63.286-23.992 292.838 67.008 424.062 39.426 56.855 96.27 95.121 154.469 115.26 80.512 27.899 176.613 29.59 176.613 29.59-37.654-92.075-114.819-290.045-129.66-333.887-18.261-53.829-34.318-84.217-49.71-181.434-9.713-79.559-27.382-278.056-32.024-364.47-108.047 51.886-172.839 149.615-186.675 310.903zM767.49 19.238c-74.297-31.787-166.502-38.781-242.716-40.223-76.212 1.41-168.419 8.449-242.699 40.223-0.013 0-0.201 0-0.267 0 24.969 66.023 144.066 351.609 209.317 463.142v0 0c5.339 0 61.961 0 67.33 0v0 0c65.226-111.549 184.359-397.117 209.317-463.142-0.146 0-0.183 0-0.267 0zM964.92 334.967c-13.902-161.274-78.67-258.997-186.747-310.878-4.589 86.406-22.238 284.9-32 364.47-15.382 97.211-31.434 127.601-49.683 181.434-14.857 43.853-92.049 241.802-129.704 333.887 0 0 96.128-1.733 176.693-29.59 58.136-20.158 114.99-58.4 154.393-115.26 91.030-131.201 72.476-360.785 67.025-424.064z" />
<glyph unicode="&#xe60f;" glyph-name="minimize" horiz-adv-x="1195" d="M502.292 407.634h64.024v-448.101h-64.024v448.101zM112.899 8.959l396.625 398.675 50.834-51.282-396.625-398.737zM566.313 407.634v-64.024h-448.163v64.024h448.163zM707.741 488.302h-64.024v448.163h64.024v-448.163zM1097.131 887.041l-396.625-398.737-50.9 51.347 396.625 398.737zM643.716 488.302v64.024h448.163v-64.024h-448.163z" />
<glyph unicode="&#xe610;" glyph-name="pause" horiz-adv-x="1195" d="M11.588 45.682h290.773l273.98 872.314h-290.916l-273.834-872.314zM867.040 917.997l-273.907-872.314h290.773l273.907 872.314h-290.773z" />
<glyph unicode="&#xe611;" glyph-name="play" horiz-adv-x="1195" d="M1180.197 448.034l-1057.55-363.619v727.108l1057.55-363.487z" />
<glyph unicode="&#xe612;" glyph-name="volume-mute" horiz-adv-x="1195" d="M909.46 905.182l-348.093-281.615h-284.22v-352.389h284.078l348.233-281.755z" />
<glyph unicode="&#xe613;" glyph-name="volume-low" horiz-adv-x="1195" d="M135.543 654.766v-363.756h293.172l359.466-290.844v945.302l-359.322-290.699h-293.316zM1006.84 727.316v-72.694c159.051-159.051 0-363.464 0-363.464v-72.694c324.938 324.938 0 508.85 0 508.85z" />
<glyph unicode="&#xe614;" glyph-name="replay" horiz-adv-x="1195" d="M682.319 494.162h402.27v402.27h-104.292v-204.661c-81.845 127.634-225.221 210.67-382.951 210.67-250.599 0-454.366-203.817-454.366-454.416 0-250.55 203.817-454.466 454.366-454.466 181.071 0 344.71 107.52 416.97 273.941l19.567 45.144h-118.148l-8.939-17.879c-59-118.694-177.545-192.345-309.4-192.345-190.557 0-345.604 155.097-345.604 345.654 0 190.606 155.048 345.654 345.604 345.654 134.835 0 253.38-77.772 310.046-195.275h-225.072v-104.292z" />
<glyph unicode="&#xe615;" glyph-name="volume-high" horiz-adv-x="1195" d="M24.208 543.915v-264.805h213.421l261.683-211.727v688.155l-261.577-211.622h-213.527zM646.003 254.397c8.467 13.547 16.088 26.565 22.914 38.948 6.72 12.383 12.436 25.031 17.092 37.836 4.71 12.913 8.255 26.248 10.795 40.324 2.54 13.971 3.81 29.053 3.81 45.457 0 16.352-1.27 31.54-3.81 45.51s-6.085 27.359-10.795 40.219c-4.657 12.859-10.372 25.454-17.092 37.89-6.827 12.383-14.394 25.401-22.914 38.948l43.605 25.401 0.847-1.693c19.475-29.106 34.503-58.634 45.14-88.692 10.531-30.058 15.876-62.602 15.876-97.581 0-35.033-5.345-67.471-15.876-97.581-10.584-30.058-25.612-59.639-45.14-88.692l-0.847-1.747-43.605 25.454zM806.029 171.631l0.635 2.54c25.401 35.561 45.298 74.616 59.692 117.162 14.394 42.6 21.591 85.623 21.591 129.227 0 44.029-7.197 87.21-21.591 129.545-14.341 42.335-34.239 81.283-59.692 116.844l53.289 35.561c29.265-40.219 51.966-84.246 68.265-132.086 16.352-47.838 24.448-97.794 24.448-149.865 0-51.649-8.096-101.499-24.448-149.547-16.298-48.051-39.002-92.185-68.265-132.403l-53.924 33.022zM991.35 67.33c18.627 29.688 34.874 58.21 48.897 85.516 13.971 27.412 25.56 55.194 34.926 83.4 9.314 28.205 16.298 57.523 20.956 87.739s6.985 62.868 6.985 97.794c0 64.031-9.314 125.998-27.887 186.009-18.681 59.957-46.621 115.521-83.823 166.747l52.337 34.926c40.165-54.717 71.493-114.993 93.878-180.771s33.603-134.783 33.603-206.966c0-66.943-10.743-133.938-32.28-200.827s-53.289-129.175-95.201-186.803l-52.389 33.233z" />
<glyph unicode="&#xe616;" glyph-name="volume-medium" horiz-adv-x="1195" d="M54.531 564.042v-320.374h258.208l316.596-256.157v832.563l-316.468-256.031h-258.335zM806.807 213.77c10.243 16.39 19.464 32.14 27.722 47.122 8.13 14.981 15.044 30.282 20.677 45.778 5.699 15.623 9.987 31.755 13.059 48.787 3.073 16.903 4.61 35.149 4.61 54.996 0 19.782-1.537 38.157-4.61 55.060s-7.362 33.1-13.059 48.658c-5.634 15.557-12.549 30.795-20.677 45.841-8.259 14.981-17.414 30.73-27.722 47.122l52.756 30.73 1.024-2.048c23.56-35.213 41.743-70.936 54.613-107.303 12.742-36.366 19.207-75.739 19.207-118.057 0-42.385-6.467-81.629-19.207-118.057-12.805-36.366-30.986-72.154-54.613-107.303l-1.024-2.113-52.756 30.795zM1000.413 113.636l0.768 3.073c30.73 43.022 54.803 90.275 72.219 141.747 17.414 51.54 26.121 103.59 26.121 156.345 0 53.268-8.707 105.51-26.121 156.73-17.351 51.22-41.423 98.34-72.219 141.364l64.472 43.022c35.405-48.658 62.87-101.925 82.589-159.804 19.782-57.876 29.577-118.315 29.577-181.312 0-62.488-9.795-122.798-29.577-180.928-19.718-58.135-47.188-111.53-82.589-160.187l-65.24 39.951z" />
<glyph unicode="&#xe617;" glyph-name="arrow-back" d="M426.667 789.333q17.667 0 30.167-12.5t12.5-30.167q0-18-12.667-30.333l-225.667-225.667h665q17.667 0 30.167-12.5t12.5-30.167-12.5-30.167-30.167-12.5h-665l225.667-225.667q12.667-12.333 12.667-30.333 0-17.667-12.5-30.167t-30.167-12.5q-18 0-30.333 12.333l-298.667 298.667q-12.333 13-12.333 30.333t12.333 30.333l298.667 298.667q12.667 12.333 30.333 12.333z" />
<glyph unicode="&#xe618;" glyph-name="down-dashed" horiz-adv-x="481" d="M272.697-32.172l-31.156-31.156-241.772 241.772 31.156 31.156 241.772-241.772zM241.729-63.453l-34.895 34.895 239.28 239.28 34.895-34.895-239.28-239.28zM278.315 1.212h-70.499v148.048h70.499v-148.048zM278.315 219.759h-70.499v140.998h70.499v-140.998zM278.315 431.256h-70.499v140.998h70.499v-140.998zM278.315 642.754h-70.499v140.998h70.499v-140.998zM278.315 854.251h-70.499v105.749h70.499v-105.749z" />
<glyph unicode="&#xe619;" glyph-name="top" horiz-adv-x="1195" d="M597.47 613l319.586-677h-639.060l319.474 677z" />
<glyph unicode="&#xe61a;" glyph-name="vertical" horiz-adv-x="640" d="M18.275 236.793l301.725 422.414 301.725-422.414h-603.449z" />
<glyph unicode="&#xe61b;" glyph-name="geolocation" d="M442.368 123.648c14.891-44.757 43.136-46.336 63.061-3.669l226.517 485.333c19.925 42.752 1.451 61.184-41.259 41.259l-485.376-226.475c-42.709-19.925-41.088-48.171 3.627-63.104l175.061-58.325 58.368-175.019z" />
<glyph unicode="&#xe61c;" glyph-name="fullscreen" d="M941.504 217.502h-660.011v660h660.011v-660zM742.504 18.505h-660.011v660.002h116.496v-543.51h543.515v-116.492zM825-64v198.997h199v825.003h-825.011v-198.998h-198.998v-825.002h825.009z" />
<glyph unicode="&#xe61d;" glyph-name="tooltip" d="M512 960c-283.307 0-512-228.693-512-512s228.693-512 512-512c283.307 0 512 228.693 512 512s-228.693 512-512 512zM571.164 213.618h-118.329v291.271h117.191v-291.271h1.138zM512 553.813c-35.271 0-64.853 28.444-64.853 64.853 0 35.271 28.444 64.853 64.853 64.853 35.271 0 64.853-28.444 64.853-64.853s-29.582-64.853-64.853-64.853z" />
<glyph unicode="&#xe800;" glyph-name="spinner" d="M1024 448c-1.278 66.862-15.784 133.516-42.576 194.462-26.704 61-65.462 116.258-113.042 161.92-47.552 45.696-103.944 81.82-164.984 105.652-61.004 23.924-126.596 35.352-191.398 33.966-64.81-1.282-129.332-15.374-188.334-41.356-59.048-25.896-112.542-63.47-156.734-109.576-44.224-46.082-79.16-100.708-102.186-159.798-23.114-59.062-34.128-122.52-32.746-185.27 1.286-62.76 14.964-125.148 40.134-182.206 25.088-57.1 61.476-108.828 106.11-151.548 44.61-42.754 97.472-76.504 154.614-98.72 57.118-22.304 118.446-32.902 179.142-31.526 60.708 1.29 120.962 14.554 176.076 38.914 55.15 24.282 105.116 59.48 146.366 102.644 41.282 43.14 73.844 94.236 95.254 149.43 13.034 33.458 21.88 68.4 26.542 103.798 1.246-0.072 2.498-0.12 3.762-0.12 35.346 0 64 28.652 64 64 0 1.796-0.094 3.572-0.238 5.332h0.238zM922.306 278.052c-23.472-53.202-57.484-101.4-99.178-141.18-41.67-39.81-91-71.186-144.244-91.79-53.228-20.678-110.29-30.452-166.884-29.082-56.604 1.298-112.596 13.736-163.82 36.474-51.25 22.666-97.684 55.49-135.994 95.712-38.338 40.198-68.528 87.764-88.322 139.058-19.87 51.284-29.228 106.214-27.864 160.756 1.302 54.552 13.328 108.412 35.254 157.69 21.858 49.3 53.498 93.97 92.246 130.81 38.73 36.868 84.53 65.87 133.874 84.856 49.338 19.060 102.136 28.006 154.626 26.644 52.5-1.306 104.228-12.918 151.562-34.034 47.352-21.050 90.256-51.502 125.624-88.782 35.396-37.258 63.21-81.294 81.39-128.688 18.248-47.392 26.782-98.058 25.424-148.496h0.238c-0.144-1.76-0.238-3.536-0.238-5.332 0-33.012 24.992-60.174 57.086-63.624-6.224-34.822-16.53-68.818-30.78-100.992z" />
<glyph unicode="&#xe801;" glyph-name="scroll-down" d="M918.309 769.396l-406.808-405.811-405.811 405.811-105.69-105.69 511.501-511.501 105.69 105.69 406.808 405.811z" />
<glyph unicode="&#xe802;" glyph-name="audio-mute" horiz-adv-x="1286" d="M0 240.747h272.464l295.707-273.755v960.726l-290.542-273.755h-277.629zM1286.134 660.419l-73.604 73.604-213.064-214.356-213.064 214.356-72.313-73.604 213.064-213.064-213.064-213.064 72.313-73.604 213.064 214.356 213.064-214.356 73.604 73.604-214.356 213.064z" />
<glyph unicode="&#xe803;" glyph-name="audio-unmute" horiz-adv-x="1286" d="M781.236 668.166l-73.604-73.604c37.448-37.448 60.691-89.1 60.691-147.208 0-56.817-23.243-109.76-60.691-147.208l73.604-73.604c56.817 56.817 91.682 134.295 91.682 220.812s-34.865 163.995-91.682 220.812zM1079.526 447.354c0 143.334-58.108 272.464-152.373 365.438l-72.313-72.313c74.895-74.895 121.382-178.199 121.382-293.125s-46.487-218.23-121.382-293.125l72.313-72.313c94.265 92.974 152.373 222.103 152.373 365.438zM1286.134 447.354c0 200.151-81.352 380.933-213.064 512.646l-73.604-73.604c112.343-112.343 182.073-267.299 182.073-439.042s-69.73-326.699-182.073-439.042l73.604-73.604c131.712 131.712 213.064 312.494 213.064 512.646zM0 240.747h272.464l295.707-273.755v960.726l-290.542-273.755h-277.629z" />
<glyph unicode="&#xe900;" glyph-name="minus" d="M276.559 486.597h473.442v-74.634h-473.442v74.634z" />
<glyph unicode="&#xe901;" glyph-name="plus" d="M476.002 686.001h74.634v-473.442h-74.634v473.442zM276.559 486.597h473.442v-74.634h-473.442v74.634z" />
<glyph unicode="&#xe902;" glyph-name="arrow-next" d="M255.795 909.005l512.41-461.005-512.41-461.107z" />
<glyph unicode="&#xe903;" glyph-name="cross" d="M136.893 476.071h750.099v-56.113h-750.099v56.113zM483.929 823.107h56.084v-750.099h-56.084v750.099z" />
<glyph unicode="&#xe904;" glyph-name="magnifying-glass" d="M335.36 954.368c-43.008-6.144-102.4-27.136-140.8-49.664-40.96-23.552-114.176-95.744-137.728-135.68-42.496-72.192-62.464-167.424-52.224-246.272 7.168-52.224 27.648-113.152 52.224-155.136 22.528-37.888 96.256-111.616 134.144-134.144 71.68-41.984 167.424-62.464 244.736-52.224 70.144 9.216 117.248 27.648 187.392 72.192 10.24 6.656 12.8 6.144 27.136-7.68 14.336-13.312 15.36-16.896 12.288-36.864-1.536-12.288-1.536-28.16 0.512-35.84 4.608-18.432 203.264-220.16 227.328-230.4 31.232-13.312 54.272-5.12 93.184 33.792s47.104 61.952 33.792 93.184c-10.24 24.064-211.968 222.72-230.4 227.328-7.68 2.048-23.552 2.048-35.328 0.512-18.944-3.072-23.040-2.048-37.888 12.8l-16.384 15.872 16.896 24.064c51.2 72.192 76.288 174.080 64.512 263.68-7.168 52.224-27.648 113.152-52.224 155.136-22.528 37.888-96.256 111.616-134.144 134.144-40.448 23.552-101.376 44.544-148.992 51.2-44.544 6.144-64 6.144-108.032 0zM473.6 874.496c51.2-12.8 98.304-40.448 140.8-83.456 64-63.488 93.184-134.144 93.184-222.72s-29.184-159.232-93.184-222.72c-63.488-64-134.144-93.184-222.72-93.184s-159.232 29.184-222.72 93.184c-64 63.488-93.184 134.144-93.184 222.72s29.184 159.232 93.184 222.72c82.944 83.456 188.416 112.128 304.64 83.456zM353.28 686.080v-79.36h-158.72v-76.8h158.72v-158.72h76.8v158.72h158.72v76.8h-158.72v158.72h-76.8v-79.36z" />
<glyph unicode="&#xe905;" glyph-name="download" horiz-adv-x="1092" d="M1064.96 318.293h-101.452c-14.981 0-21.428-6.447-21.428-21.428v-210.679h-791.893v210.679c0 14.981-6.447 21.428-21.428 21.428h-101.452c-14.981 0-27.307-6.447-27.307-21.428v-335.455c0-14.981 12.326-25.41 27.307-25.41h1037.653c14.981 0 27.307 10.43 27.307 25.41v335.455c0 14.981-12.326 21.428-27.307 21.428zM628.053 930.797c0 14.981-16.119 29.203-31.289 29.203h-101.452c-14.981 0-31.289-14.222-31.289-29.203v-284.824h-230.021l312.13-390.068 312.13 390.068h-230.21v284.824z" />
<glyph unicode="&#xe906;" glyph-name="ribbon-left" horiz-adv-x="839" d="M629.508 28.328l-109.115-83.934-352.525 503.607 352.525 503.607 104.918-88.131-297.967-415.475 302.164-419.672z" />
<glyph unicode="&#xe907;" glyph-name="ribbon-right" horiz-adv-x="839" d="M167.869 867.672l109.115 83.934 352.525-503.607-352.525-503.607-104.918 88.131 297.967 415.475-302.164 419.672z" />
<glyph unicode="&#xe908;" glyph-name="minus-circle" d="M512 960c-283.307 0-512-228.693-512-512s228.693-512 512-512c283.307 0 512 228.693 512 512s-228.693 512-512 512zM701.44 430.933h-382.293v34.133h382.293v-34.133z" />
<glyph unicode="&#xe909;" glyph-name="plus-circle" d="M512 960c-283.307 0-512-228.693-512-512s228.693-512 512-512c283.307 0 512 228.693 512 512s-228.693 512-512 512zM701.44 430.933h-174.080v-174.080h-34.133v174.080h-174.080v34.133h174.080v174.080h34.133v-174.080h174.080v-34.133z" />
<glyph unicode="&#xe90a;" glyph-name="nsx-logo" horiz-adv-x="7928" d="M1889.445 292.748l-19.819 13.213-26.426 19.819-16.516 9.91-13.213 13.213-92.49 79.277-402.994 343.535-59.458 52.852-42.942 36.335-52.852 39.639-33.032 16.516-16.516 9.91-19.819 6.606-46.245 13.213-23.123 3.303h-16.516l-19.819 3.303h-667.252l-320.413-1010.787h465.755l218.013 683.768h23.123l13.213-3.303 33.032-6.606 13.213-6.606 16.516-6.606 6.606-6.606 6.606-3.303 6.606-6.606 42.942-39.639 260.955-224.619 191.587-168.465 75.974-66.065 49.548-39.639 9.91-9.91 39.639-29.729 19.819-13.213 23.123-13.213 46.245-19.819 23.123-6.606 26.426-6.606 29.729-3.303 33.032-3.303h673.858l320.413 1010.787h-465.755l-221.316-677.161h-13.213l-19.819 3.303h-13.213l-13.213 3.303-9.91 3.303-13.213 3.303-9.91 3.303zM6543.69 652.8l690.374 307.2h693.677l-1080.155-495.484 825.806-521.91h-779.561l-488.877 320.413-703.587-320.413h-753.135l1152.826 512-746.529 498.787h726.71zM2612.852-57.394l79.277 241.135h796.077l786.168-3.303 36.335 3.303 39.639 6.606h13.213l9.91 6.606 13.213 3.303 6.606 3.303 16.516 16.516 13.213 19.819 3.303 9.91 9.91 19.819v13.213l3.303 6.606v9.91l-3.303 9.91v6.606l-3.303 6.606-13.213 13.213-13.213 6.606-19.819 6.606h-9.91l-19.819 3.303-33.032 3.303h-802.684l-194.89 3.303h-171.768l-46.245 3.303h-23.123l-33.032 3.303-52.852 6.606-23.123 3.303-23.123 6.606-13.213 3.303-16.516 3.303-26.426 13.213-9.91 3.303-9.91 6.606-6.606 6.606-9.91 3.303-6.606 9.91-16.516 16.516-6.606 9.91-9.91 19.819v9.91l-6.606 19.819v62.761l3.303 16.516 3.303 13.213 6.606 19.819 6.606 23.123 6.606 19.819 9.91 19.819 6.606 23.123 9.91 19.819 13.213 19.819 9.91 19.819 9.91 9.91 9.91 13.213 9.91 16.516 16.516 13.213 33.032 33.032 23.123 16.516 23.123 13.213 39.639 19.819 16.516 6.606 19.819 6.606 16.516 3.303 89.187 19.819 26.426 3.303 33.032 3.303 29.729 3.303 59.458 3.303h39.639l79.277 3.303h1720.981l-66.065-208.103h-1070.245l-214.71-3.303h-267.561l-26.426-3.303h-9.91l-39.639-13.213-19.819-19.819-9.91-16.516-6.606-6.606-6.606-19.819-3.303-6.606-3.303-9.91v-29.729l6.606-6.606 3.303-6.606 6.606-3.303 6.606-6.606h6.606l9.91-3.303 3.303-3.303h13.213l13.213-3.303h26.426l33.032-3.303h1080.155l42.942-3.303h59.458l52.852-3.303 79.277-9.91 23.123-6.606 26.426-6.606 33.032-13.213 13.213-9.91 33.032-26.426 13.213-13.213 6.606-9.91 13.213-26.426 6.606-16.516 6.606-39.639 3.303-13.213v-13.213l-3.303-23.123-3.303-26.426-3.303-29.729-29.729-89.187-13.213-33.032-9.91-16.516-6.606-13.213-13.213-23.123-33.032-39.639-19.819-16.516-33.032-26.426-16.516-9.91-16.516-6.606-13.213-9.91-13.213-3.303-13.213-6.606-26.426-9.91-26.426-6.606-29.729-6.606-79.277-13.213h-26.426l-56.155-3.303-39.639-3.303-79.277-3.303h-82.581l-158.555-3.303h-445.935l-356.748-3.303z" />
<glyph unicode="&#xe90b;" glyph-name="acura-logo" horiz-adv-x="7047" d="M1034.105 495.158c-8.421 170.105-67.368 294.737-146.526 363.789-85.895 74.105-245.895 101.053-370.526 101.053s-284.632-26.947-370.526-101.053c-79.158-67.368-138.105-193.684-146.526-363.789-8.421-160 26.947-333.474 117.895-432.842 87.579-97.684 262.737-128 399.158-128 0 0 0 0 0 0v0c136.421 0 311.579 30.316 399.158 128 90.947 99.368 126.316 274.526 117.895 432.842zM488.421 916.211c16.842 1.684 21.895 0 28.632 0 8.421 0 11.789 0 28.632 0v-372.211c-5.053 0-53.895 0-58.947 0l1.684 372.211zM70.737 338.526c-5.053 64-23.579 296.421 67.368 429.474 40.421 57.263 97.684 96 156.632 116.211 82.526 28.632 178.526 30.316 178.526 30.316-38.737-92.632-116.211-294.737-131.368-338.526-18.526-53.895-35.368-85.895-50.526-183.579-10.105-80.842-28.632-282.947-32-370.526-109.474 53.895-175.158 153.263-188.632 316.632zM764.632 18.526c-75.789-32-168.421-38.737-245.895-40.421-77.474 1.684-171.789 8.421-245.895 40.421 0 0 0 0 0 0 25.263 67.368 146.526 357.053 212.211 469.895v0 0c5.053 0 62.316 0 69.053 0v0 0c64-112.842 185.263-402.526 210.526-469.895 0 0 0 0 0 0zM965.053 338.526c-13.474-163.368-79.158-262.737-190.316-314.947-5.053 87.579-21.895 289.684-32 370.526-15.158 99.368-32 129.684-50.526 183.579-15.158 43.789-92.632 245.895-131.368 338.526 0 0 97.684-1.684 178.526-30.316 58.947-20.211 116.211-58.947 156.632-116.211 92.632-133.053 74.105-367.158 69.053-431.158zM1665.684 879.158h234.105l518.737-862.316h-244.211l-392.421 650.105-207.158-341.895h335.158l99.368-163.368h-532.211l-87.579-144.842h-244.211l520.421 862.316zM4879.158 16.842h-210.526v862.316h789.895c274.526 0 345.263-365.474 153.263-490.105 84.211-30.316 97.684-136.421 101.053-171.789l6.737-200.421h-208.842l-6.737 176.842c-6.737 75.789-52.211 128-129.684 128h-399.158l-42.105 178.526h464.842c72.421 0 114.526 33.684 114.526 97.684 0 60.632-42.105 97.684-114.526 97.684h-517.053l-1.684-678.737zM4021.895 16.842h192c225.684 0 316.632 124.632 316.632 328.421v533.895h-212.211v-570.947c0-107.789-75.789-122.947-144.842-124.632h-304.842c-69.053 1.684-143.158 16.842-144.842 124.632v570.947h-212.211v-533.895c0-203.789 90.947-328.421 316.632-328.421h193.684zM2620.632 448v107.789c1.684 74.105 16.842 146.526 119.579 146.526h648.421v176.842h-651.789c-203.789 0-328.421-90.947-330.105-316.632v-227.368c1.684-225.684 126.316-316.632 330.105-316.632h651.789v175.158h-648.421c-102.737 0-117.895 72.421-119.579 146.526v107.789zM6293.895 879.158h234.105l518.737-862.316h-245.895l-392.421 650.105-207.158-341.895h336.842l97.684-163.368h-532.211l-87.579-144.842h-242.526l520.421 862.316z" />
</font>
</defs>
</svg>
